Coordinates
version=1
nRows=16
nColumns=63
inDegrees=yes

Units are S.I. units (second, meters, Newtons, ...)
If the header above contains a line with 'inDegrees', this indicates whether rotational values are in degrees (yes) or radians (no).

endheader
time	pelvis_tilt	pelvis_list	pelvis_rotation	pelvis_tx	pelvis_ty	pelvis_tz	hip_flexion_r	hip_adduction_r	hip_rotation_r	knee_angle_r	knee_angle_r_beta	ankle_angle_r	subtalar_angle_r	mtp_angle_r	hip_flexion_l	hip_adduction_l	hip_rotation_l	knee_angle_l	knee_angle_l_beta	ankle_angle_l	subtalar_angle_l	mtp_angle_l	L5_S1_Flex_Ext	L5_S1_Lat_Bending	L5_S1_axial_rotation	L4_L5_Flex_Ext	L4_L5_Lat_Bending	L4_L5_axial_rotation	L3_L4_Flex_Ext	L3_L4_Lat_Bending	L3_L4_axial_rotation	L2_L3_Flex_Ext	L2_L3_Lat_Bending	L2_L3_axial_rotation	L1_L2_Flex_Ext	L1_L2_Lat_Bending	L1_L2_axial_rotation	L1_T12_Flex_Ext	L1_T12_Lat_Bending	L1_T12_axial_rotation	Abs_r3	Abs_r2	Abs_r1	Abs_t1	Abs_t2	neck_flexion	neck_bending	neck_rotation	arm_flex_r	arm_add_r	arm_rot_r	elbow_flex_r	pro_sup_r	wrist_flex_r	wrist_dev_r	arm_flex_l	arm_add_l	arm_rot_l	elbow_flex_l	pro_sup_l	wrist_flex_l	wrist_dev_l
1.850000	-3.739137	-7.548065	67.551647	0.253032	0.398480	0.959269	7.432746	2.095648	5.621533	7.680890	0.134057	22.695736	-9.308964	0.000000	6.218168	-1.919883	10.970545	9.238631	0.161245	17.880230	-15.800743	0.000000	0.109657	-0.312846	0.964265	0.203643	-0.416085	1.024532	0.180155	-0.760653	1.024532	0.125327	-0.760653	0.843732	0.101827	-0.637955	0.783465	0.062658	-0.484598	0.723199	0.783266	-3.538974	5.362953	0.000000	0.000000	27.768301	6.725393	-5.974729	-1.293807	-14.023914	8.233912	47.175035	81.998751	-10.590358	10.855118	15.871629	-11.000549	169.102295	0.616771	16.104603	-11.284100	-1.946564
1.866667	-3.652703	-7.570214	67.846219	0.252036	0.398382	0.958359	7.262412	2.098260	5.961492	7.410448	0.129337	22.760667	-9.565511	0.000000	6.381062	-1.909042	11.059435	9.575367	0.167122	18.219196	-15.603211	0.000000	0.093374	-0.269210	0.935287	0.173405	-0.358050	0.993743	0.153404	-0.654558	0.993743	0.106717	-0.654558	0.818376	0.086707	-0.548974	0.759921	0.053354	-0.417007	0.701465	0.666961	-3.045361	5.201787	0.000000	0.000000	27.651632	6.960566	-6.058748	-0.885004	-14.074844	10.270472	45.068437	81.514782	-10.553619	8.674687	15.524543	-10.561871	166.896780	0.887872	13.304095	-9.275285	-2.745556
1.883333	-3.497490	-7.576269	68.147689	0.250886	0.398275	0.957218	7.037144	2.151671	6.297362	7.144215	0.124690	22.832770	-9.832279	0.000000	6.466980	-1.951339	11.174675	9.856248	0.172024	18.675575	-15.332435	0.000000	0.075235	-0.210971	0.903848	0.139720	-0.280592	0.960338	0.123604	-0.512955	0.960338	0.085987	-0.512955	0.790867	0.069864	-0.430212	0.734376	0.042990	-0.326794	0.677886	0.537400	-2.386547	5.026930	0.000000	0.000000	27.532890	6.977340	-5.976974	-0.529921	-14.140624	12.359978	42.834632	81.074662	-10.509436	6.534455	15.231362	-10.049467	164.578611	1.205455	10.327992	-7.558962	-3.734826
1.900000	-3.258033	-7.557961	68.506396	0.249481	0.398190	0.955841	6.737111	2.265717	6.598525	6.868363	0.119876	22.846219	-10.187566	0.000000	6.467841	-2.049502	11.432952	10.082516	0.175973	19.189921	-15.096426	0.000000	0.055243	-0.137090	0.856116	0.102592	-0.182330	0.909623	0.090759	-0.333321	0.909623	0.063137	-0.333321	0.749102	0.051299	-0.279554	0.695594	0.031566	-0.212353	0.642087	0.394595	-1.550792	4.761460	0.000000	0.000000	27.422439	6.790633	-5.715800	-0.168905	-14.259953	14.807480	40.522689	80.204963	-10.525796	4.434537	15.007709	-9.470607	161.673444	1.656267	7.902567	-6.244540	-4.704401
1.916667	-2.934482	-7.512073	68.947022	0.247823	0.398146	0.954278	6.361743	2.439963	6.795069	6.578319	0.114813	22.788050	-10.609744	0.000000	6.377684	-2.209533	11.837427	10.233284	0.178604	19.734513	-14.886635	0.000000	0.034190	-0.049147	0.783762	0.063495	-0.065366	0.832748	0.056171	-0.119497	0.832748	0.039076	-0.119497	0.685792	0.031749	-0.100221	0.636807	0.019536	-0.076129	0.587822	0.244217	-0.555965	4.359052	0.000000	0.000000	27.319639	6.391177	-5.287820	0.204990	-14.406781	17.527699	38.191521	78.989157	-10.594135	2.471854	14.852178	-8.837175	158.385296	2.231145	5.881890	-5.315208	-5.614379
1.933333	-2.551587	-7.430662	69.423279	0.245967	0.398160	0.952595	5.933573	2.652419	6.923628	6.312104	0.110167	22.682687	-11.101178	0.000000	6.194123	-2.407021	12.330310	10.315884	0.180046	20.289511	-14.711044	0.000000	0.012580	0.048842	0.697394	0.023362	0.064960	0.740981	0.020668	0.118754	0.740981	0.014378	0.118754	0.610220	0.011682	0.099598	0.566633	0.007188	0.075656	0.523045	0.089858	0.552509	3.878696	0.000000	0.000000	27.208777	5.841443	-4.674362	0.555965	-14.580567	20.389225	35.965796	77.422734	-10.660776	0.750209	14.760935	-8.160765	154.764282	2.904313	4.185475	-4.754859	-6.549653
1.950000	-2.111915	-7.318026	69.976813	0.243919	0.398263	0.950790	5.463326	2.903489	6.924102	6.062507	0.105811	22.538742	-11.626606	0.000000	5.920848	-2.652553	12.952087	10.299405	0.179759	20.837405	-14.547182	0.000000	-0.005802	0.153876	0.589372	-0.010774	0.204655	0.626208	-0.009532	0.374133	0.626208	-0.006631	0.374133	0.515701	-0.005387	0.313783	0.478865	-0.003315	0.238353	0.442029	-0.041441	1.740672	3.277911	0.000000	0.000000	27.023674	5.123129	-4.044936	0.898229	-14.788104	23.423084	33.868736	75.743075	-10.784478	-0.714445	14.719322	-7.460235	150.873405	3.666140	2.901846	-4.478021	-7.441827
1.966667	-1.631050	-7.170711	70.551660	0.241736	0.398491	0.948998	4.954621	3.179872	6.924427	5.811495	0.101430	22.346807	-12.243604	0.000000	5.563529	-2.928827	13.614803	10.193873	0.177917	21.387624	-14.378505	0.000000	-0.025160	0.264084	0.475917	-0.046725	0.351231	0.505662	-0.041336	0.642093	0.505662	-0.028756	0.642093	0.416427	-0.023364	0.538519	0.386682	-0.014377	0.409066	0.356938	-0.179717	2.987367	2.646907	0.000000	0.000000	26.820861	4.297083	-3.281715	1.244959	-15.016911	26.625260	31.975974	73.584330	-10.971221	-1.880237	14.725220	-6.711861	146.952784	4.432917	1.970793	-4.555978	-8.244241
1.983333	-1.134887	-6.994006	71.200558	0.239438	0.398866	0.947275	4.436077	3.457679	6.787459	5.566910	0.097161	22.193620	-12.778272	0.000000	5.162266	-3.217696	14.343653	10.013075	0.174761	21.900399	-14.223921	0.000000	-0.042715	0.372396	0.351712	-0.079326	0.495287	0.373694	-0.070176	0.905444	0.373694	-0.048819	0.905444	0.307748	-0.039665	0.759390	0.285766	-0.024407	0.576842	0.263784	-0.305108	4.212621	1.956118	0.000000	0.000000	26.535517	3.410233	-2.630071	1.553575	-15.256941	29.676708	30.356309	71.918245	-11.107422	-2.681984	14.799775	-5.986546	142.940368	5.282552	1.442830	-4.710301	-8.935622
2.000000	-0.632428	-6.798430	71.903008	0.237087	0.399378	0.945645	3.924320	3.735368	6.533662	5.331222	0.093047	22.104745	-13.193734	0.000000	4.722917	-3.518895	15.151634	9.744041	0.170066	22.364421	-14.119884	0.000000	-0.057648	0.476744	0.223039	-0.107058	0.634069	0.236979	-0.094710	1.159155	0.236979	-0.065886	1.159155	0.195159	-0.053532	0.972176	0.181220	-0.032940	0.738476	0.167280	-0.411774	5.393021	1.240478	0.000000	0.000000	26.166357	2.473295	-2.152077	1.810696	-15.526983	32.536212	29.082741	70.686487	-11.234516	-3.158899	14.908673	-5.271294	139.077403	6.130454	1.357580	-5.044245	-9.550907
2.016667	-0.150197	-6.590617	72.627567	0.234786	0.400001	0.944145	3.431664	3.997389	6.199984	5.102207	0.089050	22.079248	-13.493416	0.000000	4.259741	-3.813961	15.971300	9.396862	0.164006	22.757808	-14.071257	0.000000	-0.069111	0.572754	0.099464	-0.128345	0.761763	0.105680	-0.113542	1.392595	0.105680	-0.078986	1.392595	0.087031	-0.064176	1.167961	0.080814	-0.039490	0.887196	0.074598	-0.493649	6.479111	0.553188	0.000000	0.000000	25.703037	1.531820	-1.896265	1.976435	-15.803738	35.008733	28.210032	70.093686	-11.335787	-3.315337	15.083036	-4.670251	134.652721	7.200914	2.002957	-5.461234	-10.161515
2.033333	0.300644	-6.376097	73.385003	0.232566	0.400724	0.942793	2.967196	4.239836	5.827149	4.885276	0.085264	22.091441	-13.754003	0.000000	3.786155	-4.097072	16.783815	8.978234	0.156700	23.049723	-14.049670	0.000000	-0.077491	0.658649	-0.023378	-0.143909	0.876004	-0.024840	-0.127311	1.601440	-0.024840	-0.088565	1.601440	-0.020456	-0.071958	1.343118	-0.018995	-0.044279	1.020248	-0.017534	-0.553513	7.450773	-0.130024	0.000000	0.000000	25.164574	0.602298	-1.840917	2.083270	-16.092935	37.179266	27.705336	69.895715	-11.469568	-3.382876	15.309741	-4.111232	130.799902	8.272811	2.509657	-5.869715	-10.796552
2.050000	0.710500	-6.175559	74.150865	0.230475	0.401499	0.941607	2.556110	4.460782	5.384877	4.690137	0.081858	22.136850	-13.904370	0.000000	3.335248	-4.366099	17.549518	8.518252	0.148672	23.227189	-14.067852	0.000000	-0.081643	0.733973	-0.142832	-0.151620	0.976183	-0.151759	-0.134132	1.784581	-0.151759	-0.093310	1.784581	-0.124978	-0.075814	1.496717	-0.116051	-0.046651	1.136923	-0.107124	-0.583171	8.302844	-0.794390	0.000000	0.000000	24.584953	-0.278959	-1.961685	2.118571	-16.364805	38.902954	27.564139	70.081992	-11.570185	-3.362706	15.546111	-3.556992	127.753732	9.186476	3.061970	-6.306200	-11.466016
2.066667	1.069396	-5.994011	74.916317	0.228549	0.402293	0.940599	2.208752	4.655255	4.877987	4.532150	0.079101	22.193209	-13.965787	0.000000	2.921235	-4.614366	18.238157	8.037482	0.140281	23.291010	-14.094283	0.000000	-0.081918	0.798222	-0.263759	-0.152131	1.061635	-0.280244	-0.134584	1.940796	-0.280244	-0.093624	1.940796	-0.230789	-0.076069	1.627734	-0.214304	-0.046808	1.236445	-0.197820	-0.585135	9.029643	-1.466950	0.000000	0.000000	23.987753	-1.083996	-2.180289	2.117376	-16.599666	40.205192	27.700250	70.501640	-11.650231	-3.307384	15.746408	-3.003791	126.033101	9.819523	3.406528	-6.844237	-12.030994
2.083333	1.369249	-5.838463	75.666463	0.226794	0.403067	0.939799	1.938175	4.816833	4.325641	4.427857	0.077281	22.233788	-13.971670	0.000000	2.562357	-4.833567	18.830656	7.561613	0.131975	23.259080	-14.099291	0.000000	-0.079232	0.851947	-0.390676	-0.147142	1.133089	-0.415093	-0.130170	2.071424	-0.415093	-0.090554	2.071424	-0.341841	-0.073575	1.737290	-0.317424	-0.045273	1.319666	-0.293007	-0.565947	9.637393	-2.172822	0.000000	0.000000	23.390814	-1.763234	-2.371231	2.119081	-16.804697	41.169593	28.029990	70.946302	-11.741690	-3.218705	15.900273	-2.451170	125.872226	10.128750	3.592788	-7.545067	-12.346596
2.100000	1.621860	-5.715770	76.323954	0.225267	0.403788	0.939222	1.754732	4.961058	3.776049	4.403350	0.076853	22.235757	-13.915090	0.000000	2.247978	-5.035404	19.304617	7.096942	0.123865	23.143313	-14.132908	0.000000	-0.074798	0.898423	-0.503835	-0.138908	1.194902	-0.535325	-0.122886	2.184425	-0.535325	-0.085487	2.184425	-0.440856	-0.069458	1.832063	-0.409366	-0.042740	1.391657	-0.377876	-0.534276	10.163136	-2.802179	0.000000	0.000000	22.798825	-2.396032	-2.539107	2.107061	-16.966880	41.733183	28.459338	71.461665	-11.809275	-3.165053	16.039324	-1.872093	127.601637	10.103073	3.692958	-8.427735	-12.376427
